PathFileType	4	(X/Y/Z)	Walk1_0-155.trc
DataRate	CameraRate	NumFrames	NumMarkers	Units	OrigDataRate	OrigDataStartFrame	OrigNumFrames
30	30	5	22	m	30	0	155
Frame#	Time	Hip			RHip			RKnee			RAnkle			RBigToe			RSmallToe			RHeel			LHip			LKnee			LAnkle			LBigToe			LSmallToe			LHeel			Neck			Head			Nose			RShoulder			RElbow			RWrist			LShoulder			LElbow			LWrist		
		X1	Y1	Z1	X2	Y2	Z2	X3	Y3	Z3	X4	Y4	Z4	X5	Y5	Z5	X6	Y6	Z6	X7	Y7	Z7	X8	Y8	Z8	X9	Y9	Z9	X10	Y10	Z10	X11	Y11	Z11	X12	Y12	Z12	X13	Y13	Z13	X14	Y14	Z14	X15	Y15	Z15	X16	Y16	Z16	X17	Y17	Z17	X18	Y18	Z18	X19	Y19	Z19	X20	Y20	Z20	X21	Y21	Z21	X22	Y22	Z22
1	0.0333333333333333	-2.5733532930577523	0.8322350870729073	0.39227026702146406	-2.5679937940460853	0.7995925473014619	0.48819349548856117	-2.5528089368532267	0.43564941269106244	0.5084182536215753	-2.5738439116242	0.08289283266524178	0.5091484361145754	-2.4020252352165086	-0.0020520185923291133	0.5502876427359128	-2.479182917772582	-0.022593443289582373	0.6085118850495073	-2.609697261212755	0.01816773068040288	0.4980250579150505	-2.5738416664582204	0.7985187174680839	0.30927112987892624	-2.5472193033815	0.44965199543363144	0.29575897625604747	-2.572105904105911	0.08061970898839414	0.28501835295403083	-2.381382524321847	-0.006873995109860874	0.2800890837550875	-2.4189420322257784	-0.013375624622618714	0.2086978640625084	-2.6246174658724235	-0.0011352078977900418	0.29282184827651514	-2.5631272299842007	1.524130447307056	0.3506843780751107	-2.5425745187889386	1.7856382668204946	0.371175693747731	-2.415313712050699	1.6575194347099156	0.37516160846131413	-2.558253106907552	1.3945872278653741	0.584639632117581	-2.558419470045089	1.0955450729832807	0.6284164365503487	-2.4834549046205714	0.8574686884027929	0.6125721735961714	-2.5644689436130066	1.3969157297879788	0.2081878282925066	-2.5465706393094787	1.0949471448366341	0.15564870661532484	-2.483886457411476	0.8535392857776543	0.17104232739527944
2	0.0666666666666666	-2.5758723116174633	0.8344279483421222	0.39242742589867213	-2.569991870150493	0.8029130696587283	0.4877222055780827	-2.5533441389262066	0.4374906923281012	0.5081503276844865	-2.5732831919156536	0.08566827891697636	0.5113690421396228	-2.4188563044406877	-0.007252943818300867	0.5440102017043732	-2.482469288951363	-0.020372041732486267	0.6083302961601189	-2.6241108081850704	0.011591845659365795	0.4989490804899479	-2.575021086376919	0.8012589413750529	0.3077930336660711	-2.547234138166087	0.4508104374486262	0.29483900607512903	-2.5715214992260864	0.08089618419949494	0.2842814044643352	-2.381362283191464	-0.007893599668814795	0.28027531799616384	-2.420212585994428	-0.013737752844821711	0.20866009640273234	-2.6240329669603963	-0.00047150993419087825	0.2963701914676576	-2.5499948525574454	1.5145021908671612	0.3682566774089515	-2.5387992016050056	1.7857097532597541	0.36969834204185026	-2.418470889977383	1.657097688630203	0.3674105345821291	-2.554835428162963	1.3930804832724646	0.584228645891072	-2.5535527273652234	1.0943553550829337	0.6261335780846593	-2.482532059381859	0.8564676884313944	0.6117727882341696	-2.5648719732165195	1.3981157136495257	0.2059390195533256	-2.5455684507099137	1.0969845130527622	0.15456364983047388	-2.482230836098764	0.855017321811755	0.16958093485827166
3	0.1	-2.5780511744478622	0.836157264372601	0.3922317485516839	-2.5717798300194326	0.8057793335587851	0.4871226005626521	-2.554135001584194	0.43889071563982385	0.5079153202579267	-2.5725954688270267	0.0881481024853092	0.5132564457755094	-2.4321976638523926	-0.011222948580090177	0.5394681576101213	-2.4847007714934515	-0.018749366843482582	0.6077213632390108	-2.636127929710454	0.005969876087358601	0.49967079295772465	-2.575966394711669	0.8035641243640842	0.30635335720203566	-2.5468632459182157	0.4518357990077786	0.2939769222210932	-2.570962001183355	0.08117776167471494	0.2838292198762567	-2.381242443177835	-0.008552978502015918	0.2803208401215195	-2.421193632685999	-0.013797275419822	0.2086027556318294	-2.623556481139902	-4.016797841039675e-05	0.29926009897461414	-2.539210315541252	1.5068403043781684	0.38171721036831685	-2.5353867215578125	1.7857529583377383	0.3681723608688815	-2.4220377209042887	1.6570983616793127	0.35977821088560485	-2.5523078641524726	1.3921041775894099	0.5828869857984799	-2.550651948184972	1.0938159116402841	0.6236513421892806	-2.481734506702319	0.8555131847663326	0.6109593621930047	-2.565087533883794	1.3990310655523808	0.2035245787185267	-2.5446666804441356	1.0985439987781578	0.15325674092503686	-2.480716496124744	0.8560916742471821	0.16783864094659592
4	0.1333333333333333	-2.5796227081889134	0.8371845619298524	0.39144828258584524	-2.5730970151982593	0.8079186819290552	0.4862197852514612	-2.5552053096324183	0.43965919376393875	0.5076434623986661	-2.5715107593815993	0.09013886066317416	0.5146118394214061	-2.4403516416987454	-0.013416658040280234	0.5374277146332143	-2.485142883132545	-0.017868476832792114	0.60653985133017	-2.6441387960339964	0.0019345615570537326	0.500078382376481	-2.5765223641231167	0.8051787595724947	0.30483394967920613	-2.545975438358598	0.4526162879015062	0.2931155093918262	-2.5704784077178413	0.08143973605961032	0.2837176860455454	-2.380963261528568	-0.008733014490476185	0.28017620638368107	-2.421791986691368	-0.013451661226532652	0.20847969226865212	-2.623221405463847	5.1694584223361756e-05	0.30114797651809533	-2.5319322536760724	1.5020841667903098	0.38902886019929805	-2.53252342846159	1.785724245606003	0.36646698840617725	-2.4257991102356233	1.657601157627588	0.3525393444757844	-2.551465845494052	1.392076385376301	0.5796970213992779	-2.5497517045264573	1.0939301394530418	0.6209995565875719	-2.4810579103049637	0.8546437817710463	0.6101146132165948	-2.565010224542028	1.399467402366557	0.20086576457677463	-2.5439203008740954	1.0993835708367519	0.15150632804485875	-2.479482626196692	0.8565548335175303	0.16569874975256754
5	0.1666666666666666	-2.5804780248082175	0.8375125023601155	0.3899948117826162	-2.5737027161793486	0.8092881006814118	0.48487519260412765	-2.556361321268961	0.43988649017139186	0.5072398188428144	-2.5698231899086994	0.09158302952389709	0.5154532929811936	-2.443556938032289	-0.014008618379488129	0.5374995144797972	-2.4836504512476516	-0.017365031969827735	0.6051601801281083	-2.6483217061721867	-0.0005326704485582245	0.5001434681602281	-2.5766303788417577	0.8060682962428767	0.30301917889623853	-2.5447426038162284	0.45308631264663923	0.29215812879387776	-2.5701205565313785	0.08161747700996756	0.28379813266739556	-2.3805431912728356	-0.00854796470531606	0.2798656119569833	-2.4220703482615242	-0.012819968838685244	0.20828794052191138	-2.623011101242783	-0.0001468207045168648	0.302054053780629	-2.5282010623864064	1.500169390159762	0.39018506864525004	-2.5301340597924256	1.7855989822786957	0.3643937859175088	-2.4285432085903498	1.6582526006457308	0.3462831826081423	-2.5529458125314055	1.3933366232164817	0.573714463845157	-2.5496764235988003	1.094319793951277	0.6183122209609901	-2.4803969856287553	0.8539119854667587	0.609215479009852	-2.5646097556858725	1.3993829871287617	0.19794127995818153	-2.5433277668465886	1.099519848640709	0.1491559025181639	-2.4786522373991615	0.8564241235294476	0.16321168205631525
